<svg xmlns="http://www.w3.org/2000/svg" version="1.1" xmlns:xlink="http://www.w3.org/1999/xlink" xmlns:svgjs="http://svgjs.com/svgjs" width="512" height="512" x="0" y="0" viewBox="0 0 512 512" style="enable-background:new 0 0 512 512" xml:space="preserve" class=""><g><path d="M165.4 236.5c4 0 7.8 2 10 5.4l17.1 25.8c5.4 8.1 9.9 15.6 14.7 23.7h.9c4.8-8.7 9.6-16.2 14.4-24l17-25.7c2.1-3.2 5.8-5.2 9.6-5.2 9.4 0 14.8 10.6 9.4 18.2l-36.7 52 37.9 55.7c5.6 8.2-.3 19.3-10.2 19.3-4.2 0-8.1-2.1-10.3-5.6L221.7 349c-5.7-8.4-10.5-16.5-15.6-25.2h-.6c-4.8 8.7-9.9 16.5-15.3 25.2l-17.5 27.3c-2.2 3.4-5.9 5.4-9.9 5.4-9.6 0-15.2-10.7-9.7-18.6l38.7-55.5-36.1-52.2c-5.7-8 0-18.9 9.7-18.9zM280.2 241.1c0-2.2.9-4.2 2.5-5.7l16.4-15.1c24.9-22.8 37.8-36.9 37.8-52.2 0-11.4-7.2-20.7-22.8-20.7-6.9 0-13.2 2.2-18.3 4.9-3.9 2.1-8.7.4-10.5-3.6-1.6-3.5-.4-7.7 2.9-9.7 8.1-4.9 19.1-8.7 31-8.7 28.2 0 39.9 18 39.9 33.9 0 22.8-17.1 39.3-39.9 59.1l-9.3 8.4v.6H353c4.6 0 8.2 3.7 8.2 8.2 0 4.6-3.7 8.2-8.2 8.2h-65c-4.4.1-7.8-3.4-7.8-7.6z" fill="#000000" data-original="#000000" class=""></path></g></svg>