<svg xmlns="http://www.w3.org/2000/svg" xml:space="preserve" style="enable-background:new 0 0 512 512" viewBox="0 0 512 512"><path d="M342.2 85.3c-28.7.1-53.9 19.2-61.7 46.9L194.1 443c-4.2 15.4-18.2 26.1-34.1 26.3-15.6-.2-29.4-10.1-34.6-24.7L65.8 280.8c-7.9-22.7-26.3-40.1-49.3-46.7C5 231.3-2 219.8.8 208.3c2.8-11.5 14.3-18.5 25.8-15.7 37 9.9 66.7 37.5 79.4 73.6l52.8 145.1 80.7-290.5c12.9-46.1 54.9-78 102.8-78.1h148.5c11.8 0 21.3 9.6 21.3 21.3s-9.6 21.3-21.3 21.3H342.2zm161.3 175c-9.4-7.1-22.8-5.2-29.9 4.3l-46.9 62.6-46.9-62.6c-7.1-9.4-20.4-11.3-29.9-4.3-9.4 7.1-11.3 20.4-4.3 29.9l54.4 72.5-54.4 72.5c-7.1 9.4-5.2 22.8 4.3 29.9 9.4 7.1 22.8 5.2 29.9-4.3l46.9-62.6 46.9 62.6c7.1 9.4 20.4 11.3 29.9 4.3 9.4-7.1 11.3-20.4 4.3-29.9l-54.4-72.5 54.4-72.5c7-9.5 5.1-22.9-4.3-29.9z"/><path d="M101.5 171c34.5-18.2 51.5-38 51.7-59 .1-8.9-6.9-16.5-15.9-16.6-6.9 0-14.6 2.9-21.2 7.8-4.3 3.2-10.3 2.7-13.7-1.4l-.4-.5c-3.6-4.2-3.1-10.4 1-14.1 8.9-7.9 21.7-12.8 34.6-12.8 25.9 0 38.7 11.8 38.7 35.6 0 22.1-13 42.2-39.7 60.9v3.2h34.6c5.6 0 10.1 4.5 10.1 10.1s-4.5 10.1-10.1 10.1h-69.6V171z"/></svg>